# xmcd
# Copyright (c) 1998 CDDB Inc.
#
# Track frame offsets:
#	150
#	16326
#	30204
#	46466
#	66741
#	80123
#	97779
#	114724
#	131683
#	146222
#	162376
#	177973
#
# Disc length: 2586 seconds
#
# Revision: 3
# Processed by: cddbd v1.5.2PL0 Copyright (c) Steve Scherf et al.
# Submitted via: AudioCatalyst 2.10full
#
DISCID=a70a180c
DTITLE=Ilse DeLange - Incredible
DYEAR=2008
DGENRE=Pop
TTITLE0=Broken Girl
TTITLE1=Something Amazing
TTITLE2=Stay With Me
TTITLE3=Miracle
TTITLE4=So Incredible
TTITLE5=We're Alright
TTITLE6=Adrift
TTITLE7=Puzzle Me
TTITLE8=Love Won't Hide
TTITLE9=Nothing Left To Break
TTITLE10=The Other Side
TTITLE11=Fall
EXTD=
EXTT0=
EXTT1=
EXTT2=
EXTT3=
EXTT4=
EXTT5=
EXTT6=
EXTT7=
EXTT8=
EXTT9=
EXTT10=
EXTT11=
PLAYORDER=
